<svg id="Layer_1" data-name="Layer 1" xmlns="http://www.w3.org/2000/svg" viewBox="0 0 432 432"><defs><style>.cls-1{fill:#696d76;}</style></defs><path class="cls-1" d="M419.33,218.83c-2,107.79-85.54,196.39-196.27,200.24C104.58,423.18,10,329.72,12.73,209.83c2.42-105.62,85-194.06,197.78-197C327.83,9.87,418.35,101.21,419.33,218.83ZM216.16,53.57c-86.09-.72-161.59,68-162.84,159.81C52.05,306,125.76,377.86,215.41,379c86.5,1.1,161.57-70.51,163.25-159.83C380.37,128.29,307.7,53.22,216.16,53.57Z"/><path class="cls-1" d="M134.94,174.52c-.36-22.37,7.83-41,22.74-56.15C197.37,77.92,265.22,88.86,289,140.25c14.72,31.78,11.13,58-15.48,82-10.84,9.77-21.4,20.13-30.46,31.52-4.66,5.87-5.73,14.58-8.71,22.8h-38c-1-15.15,1.88-29.08,11.06-40.73,6.31-8,14.45-14.61,22-21.59,4.73-4.38,9.94-8.23,14.83-12.43,20.17-17.3,12.1-44.82-.45-56.37-17-15.67-44.19-14.82-57.86,2.93-5.63,7.3-8.74,16.53-13.64,26.15Z"/><path class="cls-1" d="M235.68,297.67v39.72H196.53V297.67Z"/></svg>