<svg id="Layer_1" data-name="Layer 1" xmlns="http://www.w3.org/2000/svg" xmlns:xlink="http://www.w3.org/1999/xlink"
    viewBox="0 0 1920 1920">
    <defs>
        <style>
            .cls-1 {
                fill: #fff;
            }

            .cls-2 {
                fill: url(#linear-gradient);
            }
        </style>
        <linearGradient id="linear-gradient" x1="-2110.77" y1="1801.29" x2="-1841.96" y2="1335.69"
            gradientTransform="translate(3154.72 1535.7) rotate(45)" gradientUnits="userSpaceOnUse">
            <stop offset="0" stop-color="#f13e37" />
            <stop offset="0.53" stop-color="#ef2a2c" />
            <stop offset="1" stop-color="#ed1c24" />
        </linearGradient>
    </defs>
    <path class="cls-1"
        d="M1085.81,1297.71l-1.55,1.56a35.8,35.8,0,0,1-50.63,0L613.79,879.44a35.8,35.8,0,0,1,0-50.63l1.56-1.56a35.8,35.8,0,0,1,50.63,0l1.56,1.56a35.8,35.8,0,0,0,50.63,0l1.56-1.56a35.79,35.79,0,0,1,50.62,0l313.13,313.12a35.8,35.8,0,0,1,0,50.63l-1.56,1.56a35.8,35.8,0,0,0,0,50.63l3.89,3.89A35.78,35.78,0,0,1,1085.81,1297.71Z" />
    <path class="cls-1"
        d="M1393.49,884.11l-1.56,1.56a35.8,35.8,0,0,1-50.63,0h0a35.8,35.8,0,0,0-50.63,0L1123.2,1051.58a35.8,35.8,0,0,1-50.63,0L1071,1050a35.78,35.78,0,0,1,0-50.63l167.46-165.91a35.8,35.8,0,0,0,0-50.63l-1.56-1.56a35.8,35.8,0,0,0-50.63,0L1018.83,947.2a35.8,35.8,0,0,1-50.63,0l-1.56-1.56a35.8,35.8,0,0,1,0-50.63l167.47-165.9a35.8,35.8,0,0,0,0-50.63l-1.56-1.56a35.8,35.8,0,0,0-50.63,0L914.45,842.83a35.8,35.8,0,0,1-50.63,0l-1.55-1.56a35.8,35.8,0,0,1,0-50.63l167.46-165.91a35.8,35.8,0,0,0,0-50.63l-1.56-1.56a35.8,35.8,0,0,1,0-50.63l1.56-1.55a35.8,35.8,0,0,1,50.63,0l313.13,313.12A35.8,35.8,0,0,1,1393.49,884.11Z" />
    <path class="cls-1"
        d="M1504.16,841.34,1073.28,410.46c-19.55-19.55-6-48.48,19.38-41.27l335.57,95.31a32.52,32.52,0,0,1,21.9,21.89L1545.44,822C1552.64,847.31,1523.72,860.89,1504.16,841.34Z" />
    <path class="cls-2"
        d="M929.82,1273.21l-27-27c-12.3-12.3-33.41-9-43,6.5-5.12,8.33-10.56,16.47-16.42,24.42-10.36,14.06-31.85,9.24-33.83-7.59,0-.3-.07-.59-.1-.89-3-25.3-28.83-40.08-53-30.14a322.26,322.26,0,0,0-47.83,24.56c-25,15.6-55-6-46.86-34.06.08-.26.15-.53.23-.79a304,304,0,0,1,14.37-38.75c9.63-21.54-2.56-45.48-25-50l-1.1-.22c-25.28-4.94-30.27-38.57-7.75-52.75l.62-.39a314.43,314.43,0,0,1,29.65-16.4c17.38-8.45,21.95-31.2,8.88-44.26L640,983.81a26.59,26.59,0,0,0-26.88-6.22,235.74,235.74,0,0,0-42.17,18c-37.47,20.28-69.17,47.31-92.8,83.27a232,232,0,0,0-37.53,117.7c-1.26,30.32-1.85,60.65-2.43,91a132.59,132.59,0,0,1-25.19,76.4l-.1.15c-4,5.54.45,12.76,7,11.39,48.84-10.16,91.79-33.84,131.19-66.77a.54.54,0,0,1,.89.56c-12.1,40.11-30.29,77.66-52.27,113.61-16.68,27.28-35.83,52.72-56.65,77.05-7.44,8.69-.32,21.34,10.7,19,106-22.37,196.9-76.39,278.07-154.69a.55.55,0,0,1,1,.39c-1.48,43-12.91,81.1-34.15,115.46-9.18,14.86,3.91,32.5,20.41,27.24,34.35-10.95,66.19-28.16,96-50.52,54.85-41.09,95.12-92.57,120.2-154.74A26.56,26.56,0,0,0,929.82,1273.21Z" />
    <path class="cls-1"
        d="M490.12,623.66c-10.42-19.15-20.64-37.8-31.35-56.16a50.6,50.6,0,0,0-18.37-18.3c-18.37-10.64-37-20.78-56.12-31.09a19.23,19.23,0,0,1-.06-33.79c19.4-10.6,38.42-21.05,57.17-31.94A49.12,49.12,0,0,0,458.44,435c10.65-18.53,20.88-37.31,31.25-56.46a19.23,19.23,0,0,1,33.84,0c9.32,17.3,18.58,34.25,28.66,50.68a78.61,78.61,0,0,0,26.1,26c16.49,10.06,33.48,19.28,51,28.66a19.23,19.23,0,0,1,.13,33.84c-18.82,10.25-37.21,20.32-55.31,30.89a55.21,55.21,0,0,0-19.16,19c-10.63,18.3-20.74,36.9-31,56A19.23,19.23,0,0,1,490.12,623.66Z" />
</svg>